<svg viewBox="0 0 249.73 198.24" xmlns="http://www.w3.org/2000/svg"><path d="m244.57 132.38c-.81 2.88-1.63 5.77-2.44 8.65-1.63 1.6-3.11.25-4.53-.34-12.71-5.3-25.36-10.75-38.1-15.97-2.57-1.05-6.75-4.17-7.85-1.34-1.36 3.48 3.9 3.9 6.47 5.02 12.33 5.34 24.79 10.39 37.1 15.78 1.81.79 4.41 1.03 4.2 4.03-1.68 3.23-2.8 6.82-6.01 9.03-9.02-2.28-17.21-6.67-25.76-10.14-5.51-2.24-11.02-4.5-16.48-6.88-1.21-.53-2.43-1.08-3.74-1.29-1-.16-2.13-.24-2.61.82-.49 1.09.33 1.84 1.18 2.42.97.65 2.08 1.02 3.14 1.47 11.7 5.02 23.49 9.82 35.17 14.89 1.67.72 4.03.85 4.08 3.53-2.43 2.02-4.72 4.28-7.92 5.1-4.93-.95-9.37-3.25-13.92-5.19-9.6-4.1-19.28-8.03-28.87-12.15-1.82-.78-4.67-2.44-5.63.17-.79 2.15 2.43 2.68 4.11 3.43 11.21 4.98 22.66 9.37 33.87 14.36 1.63.72 4.77.72 3.35 4.12-3.32 1.27-6.13 3.69-9.75 4.28-2.44.35-4.54-.73-6.65-1.64-11.59-4.97-23.25-9.76-34.85-14.7-.31-.13-.6-.3-.92-.37-1.96-.43-4.59-2.82-5.75-.36-1.23 2.62 2.21 3.14 3.97 3.9 9.59 4.15 19.24 8.16 28.87 12.23 2.54 1.08 5.96 1.17 7.09 4.57-5.06 2.24-10.3 3.92-15.64 5.33-2.94.88-5.54-.4-8.13-1.42-8.63-3.41-17.07-7.29-25.69-10.73-.92-.37-1.79-.9-2.74-1.17-1.37-.4-3.17-1.42-3.91.46-.69 1.75 1.14 2.61 2.44 3.19 7.12 3.15 14.4 5.94 21.47 9.23 1.63.76 4.74.73 3.39 4.12-3.59.75-7.18 1.5-10.77 2.24-3.39.96-6.49-.14-9.56-1.35-5.83-2.3-11.49-5.01-17.33-7.3-1.23-.48-2.43-1.06-3.76-1.21-1.05-.12-2.11.02-2.33 1.23-.2 1.12.67 1.85 1.58 2.27 3.28 1.55 6.7 2.81 9.95 4.4 2.35 1.14 5.6 1.27 6.29 4.7-6.9.75-13.69 2.53-20.71 2.05-3.47-.48-6.63-1.86-9.83-3.21-1.91-.81-4.22-2.66-5.96-.96-1.96 1.92 2.08 2.92 1.55 5.57-10.49.22-21.12.46-31.76-.13-18.61.54-32.71-7.77-43.84-22.14-13.98-18.04-24.19-37.88-29.16-60.24-2.87-12.91.62-17.2 13.77-17.32 9.65-.09 19.19 1.29 28.73 2.43 25.21 3.01 31.63.04 44.53-21.96 6.78-11.55 12.97-23.45 19.77-34.98 7.47-12.67 9.55-13.09 21.21-4.1 12.19 9.4 24 19.29 36.13 28.77 3.63 2.84 7.74 5.07 11.65 7.54 6.59 4.17 13.12 3.52 19.72-.1 8.48-4.65 15.81-10.89 23.56-16.55 4.28-3.13 8.56-6.29 13.43-8.42 7.45-3.26 10.58-1.75 12.98 5.99.44 1.41 1.17 2.77.81 4.34-3.56.7-6.25-1.66-9.32-2.67-1.53-.51-3.54-1.6-4.35.46-.78 2.01 1.42 2.67 2.86 3.38 3.97 1.98 8.49 2.86 11.92 5.94 1.15 2.52 1.01 5.19.91 7.86-2.5 1.7-4.3-.52-6.33-1.2-3.11-1.04-6.09-2.49-9.19-3.58-1.08-.38-2.43-.89-3.13.37-.84 1.53.41 2.5 1.59 3.09 3.82 1.92 7.85 3.36 11.77 5.07 1.97.86 4 1.55 5.37 3.33.52 2.98.54 5.95.02 8.93-2.3.97-4.17-.38-6.09-1.2-5.17-2.21-10.36-4.35-15.58-6.44-1.3-.52-3.16-1.19-3.79.8-.49 1.55 1.14 2.24 2.29 2.8 5.35 2.62 11 4.53 16.43 6.97 2.4 1.08 5 1.83 6.64 4.12.11 3.31.05 6.6-.97 9.79-2.84.8-5.11-.84-7.46-1.87-7.11-3.12-14.35-5.91-21.43-9.07-.6-.27-1.21-.55-1.85-.69-1.25-.28-2.76-.99-3.43.71-.52 1.34.72 2.05 1.69 2.67 1.39.9 2.93 1.51 4.47 2.11 8.01 3.1 15.78 6.75 23.75 9.96 1.88.76 4.39 1.28 3.55 4.37-.42 2.59-.85 5.18-1.27 7.77-2.65 1.64-4.8-.33-6.91-1.23-9.57-4.13-19.25-7.98-28.81-12.13-1.85-.8-4.66-2.82-5.71-.61-1.4 2.94 2.27 3.43 4.16 4.25 10.61 4.63 21.39 8.86 32 13.49 1.88.82 4.36 1.34 3.57 4.4z" fill="#f7f7f7"/><path d="m239.42 148.21c-.6-1.66-2.19-1.84-3.55-2.41-14.33-6.08-28.65-12.22-43.01-18.24-2.34-.98-4.59-1.93-3.38-4.9 1.23-3.02 3.63-2.04 5.88-1.1 15.58 6.51 31.17 12.98 46.76 19.47-.9 2.39-1.8 4.79-2.71 7.18z"/><path d="m228.38 162.08c-10.95-5.79-22.7-9.72-33.96-14.81-2.71-1.22-5.51-2.23-8.24-3.41-2.18-.95-4.66-2.08-3.19-5.04 1.39-2.81 3.86-1.77 6.06-.85 8.98 3.78 18.01 7.45 26.93 11.37 5.84 2.57 12.08 4.26 17.44 7.89-.85 2.48-3.16 3.43-5.03 4.84z"/><path d="m213.36 171.92c-.07-2.3-2.1-2.21-3.52-2.82-12.33-5.26-24.65-10.53-37.03-15.68-2.32-.96-3.95-2.18-2.84-4.75 1.02-2.35 3.29-2.04 5.18-1.25 14.95 6.27 29.87 12.62 44.78 18.97.24.1.34.52.51.79-1.89 2.29-4.64 3.3-7.09 4.74z"/><path d="m195.36 179.83c-12.75-5.47-25.49-10.99-38.28-16.39-2.31-.98-4.56-1.86-3.5-4.87 1.13-3.23 3.52-2.18 5.74-1.23 14.76 6.29 29.52 12.57 44.28 18.85-2.44 1.92-5.36 2.73-8.25 3.64z"/><path d="m244.57 132.38c-.43-2.2-2.34-2.52-4-3.22-10.7-4.47-21.39-8.98-32.07-13.48-1.07-.45-2.11-.97-3.19-1.39-2.32-.92-3.74-2.46-2.65-4.98 1.07-2.46 3.08-1.9 5.07-1.06 7.47 3.17 14.95 6.33 22.45 9.43 5.35 2.22 10.73 4.34 16.09 6.51-.57 2.73-1.13 5.45-1.7 8.18z"/><path d="m166.55 188.84c.16-2.47-2.05-2.24-3.39-2.82-7.42-3.22-14.89-6.32-22.34-9.49-2.16-.92-4.76-1.91-3.6-4.89 1.29-3.3 3.92-2.09 6.27-1.1 10.35 4.35 20.69 8.73 31.06 13.03 1.66.69 3.44 1.07 5.17 1.59-4.39 1.23-8.78 2.45-13.17 3.68z"/><path d="m247.54 116.43c-.51-2.13-2.36-2.5-4.04-3.21-9.3-3.89-18.57-7.82-27.84-11.78-2.14-.91-4.73-1.88-3.44-4.91 1.25-2.96 3.7-2.02 5.93-1.07 10.04 4.26 20.07 8.52 30.11 12.78.07 2.76.3 5.53-.71 8.19z"/><path d="m140.62 193.81c-4.99-3.65-11-5.09-16.51-7.63-2.33-1.07-4.32-2.38-2.95-5.18 1.27-2.61 3.62-1.68 5.63-.84 7.15 2.97 14.29 5.97 21.4 9.04 2.45 1.06 4.91 1.87 7.59 1.88-5.05.91-10.1 1.82-15.16 2.73z"/><path d="m249.22 98.45c-7.9-3.32-15.8-6.63-23.69-9.97-2.17-.92-4.68-1.96-3.51-4.92 1.16-2.94 3.63-2.1 5.88-1.15 7.14 3.01 14.28 5.99 21.43 8.98-.03 2.35-.07 4.71-.1 7.06z"/><g fill="#f4f4f4"><path d="m120.59 22.21c-.03 1.65-.63 3.15-2.6 3.51-2.14.39-3.61-.63-3.98-2.76-1.09-6.19-2.09-12.4-3.08-18.61-.32-2.02.25-3.71 2.45-4.23 2.29-.54 3.42.8 3.8 2.86 1.16 6.35 2.26 12.71 3.41 19.24z"/><path d="m39.01 80.41c.09 2.13-.47 3.31-1.86 3.83-1.76.66-3.45.26-4.2-1.53-2.32-5.46-4.54-10.97-6.64-16.52-.55-1.45-.03-2.95 1.5-3.83 1.58-.91 3.27-.53 3.91.86 2.67 5.85 5.05 11.83 7.29 17.19z"/><path d="m84.61 22.74c1.79.3 2.78 1.28 3.38 2.77 1.91 4.73 3.93 9.42 5.73 14.2.77 2.04 1.2 4.54-1.43 5.55-2.65 1.02-3.79-1.08-4.65-3.2-1.85-4.58-3.8-9.13-5.55-13.75-1-2.63-.74-4.9 2.52-5.56z"/></g><path d="m249.3 82.45c-6.12-2.45-12.25-4.88-18.34-7.38-2.11-.86-3.27-2.56-2.35-4.75.99-2.36 3.02-2.11 5.05-1.27 5.18 2.12 10.37 4.21 15.56 6.31.03 2.36.05 4.72.08 7.08z"/><path d="m182.53 29.78c-2.41 4.85-4.49 10.28-7.86 15.02-.82 1.16-2.41.99-3.64.2-1.5-.96-1.81-2.48-1.13-3.94 2.12-4.49 4.37-8.93 6.67-13.34.76-1.45 2.13-2.14 3.77-1.44 1.29.55 2.12 1.56 2.2 3.49z" fill="#f4f4f4"/><path d="m73.91 197.14c10.22-.35 20.45.59 30.73-.37.3-1.4-1.09-1.26-1.74-1.67-1.63-1.04-2.42-2.33-1.46-4.13.87-1.62 2.34-2.43 4.16-1.63 4.79 2.12 9.91 3.52 14.3 6.52-15.28 2.45-30.6 3.23-46 1.28z"/><path d="m248.31 67.51c-4.71-1.85-9.43-3.69-14.14-5.56-2.09-.83-3.41-2.29-2.42-4.58 1-2.3 3.11-2.22 5.06-1.44 3.5 1.4 6.93 2.97 10.38 4.48 1.23 2.24 1.29 4.65 1.11 7.11h.01z"/><path d="m62.08 56.55c-.11-2.34.45-3.62 2.16-4.06 1.59-.41 3.1-.05 3.71 1.57 1.33 3.53 2.56 7.1 3.61 10.71.48 1.67-.74 2.85-2.19 3.4-1.61.61-3.09-.13-3.69-1.61-1.41-3.49-2.56-7.08-3.59-10.01z" fill="#f4f4f4"/><path d="m146.75 29.12c0-1.15-.13-2.31.03-3.44.27-1.89 1.6-3.19 3.38-2.8 4.08.88 3.13 4.42 3.19 7.22.05 2.28 0 4.89-2.99 5.43-2.08.38-3.48-.74-3.64-2.97-.08-1.14 0-2.3 0-3.44h.04z" fill="#f4f4f4"/></svg>